<svg width="36" height="36" viewBox="0 0 36 36" fill="none" xmlns="http://www.w3.org/2000/svg">
  <rect opacity="0.2" width="36" height="36" rx="3" fill="#0589A6" />
  <mask id="path-2-inside-1_0_1" fill="white">
    <path
      d="M27.4188 17.134C28.0854 17.5189 28.0854 18.4811 27.4188 18.866L11.3662 28.134C10.6995 28.5189 9.86621 28.0378 9.86621 27.268L9.86621 8.73205C9.86621 7.96225 10.6995 7.48113 11.3662 7.86603L27.4188 17.134Z" />
  </mask>
  <path
    d="M11.3662 28.134L12.1162 29.433L11.3662 28.134ZM27.4188 18.866L26.6688 17.567L27.4188 18.866ZM26.6688 17.567L10.6162 26.8349L12.1162 29.433L28.1688 20.1651L26.6688 17.567ZM11.3662 27.268L11.3662 8.73205L8.36621 8.73205L8.36621 27.2679L11.3662 27.268ZM10.6162 9.16506L26.6688 18.433L28.1688 15.8349L12.1162 6.56699L10.6162 9.16506ZM11.3662 8.73205C11.3662 9.11695 10.9495 9.35751 10.6162 9.16506L12.1162 6.56699C10.4495 5.60474 8.36621 6.80755 8.36621 8.73205L11.3662 8.73205ZM10.6162 26.8349C10.9495 26.6425 11.3662 26.883 11.3662 27.268L8.36621 27.2679C8.36621 29.1925 10.4495 30.3953 12.1162 29.433L10.6162 26.8349ZM28.1688 20.1651C29.8354 19.2028 29.8354 16.7972 28.1688 15.8349L26.6688 18.433C26.3354 18.2406 26.3354 17.7594 26.6688 17.567L28.1688 20.1651Z"
    fill="white" mask="url(#path-2-inside-1_0_1)" />
</svg>